<mxfile host="Electron" agent="Mozilla/5.0 (Windows NT 10.0; Win64; x64) AppleWebKit/537.36 (KHTML, like Gecko) draw.io/24.7.8 Chrome/128.0.6613.36 Electron/32.0.1 Safari/537.36" version="24.7.8">
  <diagram name="Page-1" id="5f0bae14-7c28-e335-631c-24af17079c00">
    <mxGraphModel dx="1050" dy="621" grid="1" gridSize="10" guides="1" tooltips="1" connect="1" arrows="1" fold="1" page="1" pageScale="1" pageWidth="1100" pageHeight="850" background="none" math="0" shadow="0">
      <root>
        <mxCell id="0" />
        <mxCell id="1" parent="0" />
        <mxCell id="mM0fU--lh0PXxAO5b_J5-8" value="" style="rounded=0;whiteSpace=wrap;html=1;" vertex="1" parent="1">
          <mxGeometry x="260" y="30" width="460" height="450" as="geometry" />
        </mxCell>
        <mxCell id="mM0fU--lh0PXxAO5b_J5-1" value="" style="group" vertex="1" connectable="0" parent="1">
          <mxGeometry x="270" y="50" width="250" height="180" as="geometry" />
        </mxCell>
        <mxCell id="mM0fU--lh0PXxAO5b_J5-2" value="" style="rounded=0;whiteSpace=wrap;html=1;" vertex="1" parent="mM0fU--lh0PXxAO5b_J5-1">
          <mxGeometry y="22.5" width="229.16666666666669" height="157.5" as="geometry" />
        </mxCell>
        <mxCell id="mM0fU--lh0PXxAO5b_J5-3" value="" style="endArrow=none;html=1;rounded=0;" edge="1" parent="mM0fU--lh0PXxAO5b_J5-1">
          <mxGeometry width="50" height="50" relative="1" as="geometry">
            <mxPoint y="22.5" as="sourcePoint" />
            <mxPoint x="20.833333333333336" as="targetPoint" />
          </mxGeometry>
        </mxCell>
        <mxCell id="mM0fU--lh0PXxAO5b_J5-4" value="" style="endArrow=none;html=1;rounded=0;exitX=1;exitY=0;exitDx=0;exitDy=0;" edge="1" parent="mM0fU--lh0PXxAO5b_J5-1" source="mM0fU--lh0PXxAO5b_J5-2">
          <mxGeometry width="50" height="50" relative="1" as="geometry">
            <mxPoint x="145.83333333333334" y="112.5" as="sourcePoint" />
            <mxPoint x="250.00000000000003" as="targetPoint" />
          </mxGeometry>
        </mxCell>
        <mxCell id="mM0fU--lh0PXxAO5b_J5-5" value="" style="endArrow=none;html=1;rounded=0;" edge="1" parent="mM0fU--lh0PXxAO5b_J5-1">
          <mxGeometry width="50" height="50" relative="1" as="geometry">
            <mxPoint x="229.16666666666669" y="180" as="sourcePoint" />
            <mxPoint x="250.00000000000003" y="157.5" as="targetPoint" />
          </mxGeometry>
        </mxCell>
        <mxCell id="mM0fU--lh0PXxAO5b_J5-6" value="" style="endArrow=none;html=1;rounded=0;" edge="1" parent="mM0fU--lh0PXxAO5b_J5-1">
          <mxGeometry width="50" height="50" relative="1" as="geometry">
            <mxPoint x="20.833333333333336" as="sourcePoint" />
            <mxPoint x="250.00000000000003" as="targetPoint" />
          </mxGeometry>
        </mxCell>
        <mxCell id="mM0fU--lh0PXxAO5b_J5-7" value="" style="endArrow=none;html=1;rounded=0;" edge="1" parent="mM0fU--lh0PXxAO5b_J5-1">
          <mxGeometry width="50" height="50" relative="1" as="geometry">
            <mxPoint x="250.00000000000003" y="157.5" as="sourcePoint" />
            <mxPoint x="250.00000000000003" as="targetPoint" />
          </mxGeometry>
        </mxCell>
        <mxCell id="mM0fU--lh0PXxAO5b_J5-21" value="&lt;u&gt;PDF&lt;/u&gt;" style="text;html=1;align=center;verticalAlign=middle;whiteSpace=wrap;rounded=0;" vertex="1" parent="mM0fU--lh0PXxAO5b_J5-1">
          <mxGeometry x="-15.625000000000002" y="15.000000000000002" width="93.75" height="45" as="geometry" />
        </mxCell>
        <mxCell id="mM0fU--lh0PXxAO5b_J5-31" value="PDFFile.py" style="rounded=0;whiteSpace=wrap;html=1;" vertex="1" parent="mM0fU--lh0PXxAO5b_J5-1">
          <mxGeometry x="10.42" y="58.24" width="99.58" height="41.76" as="geometry" />
        </mxCell>
        <mxCell id="mM0fU--lh0PXxAO5b_J5-32" value="PDFChecker.py" style="rounded=0;whiteSpace=wrap;html=1;" vertex="1" parent="mM0fU--lh0PXxAO5b_J5-1">
          <mxGeometry x="10.42" y="116.47" width="99.58" height="43.53" as="geometry" />
        </mxCell>
        <mxCell id="mM0fU--lh0PXxAO5b_J5-40" value="NLPModel.py" style="rounded=0;whiteSpace=wrap;html=1;" vertex="1" parent="mM0fU--lh0PXxAO5b_J5-1">
          <mxGeometry x="125" y="58.24" width="95" height="41.76" as="geometry" />
        </mxCell>
        <mxCell id="mM0fU--lh0PXxAO5b_J5-11" value="" style="group" vertex="1" connectable="0" parent="1">
          <mxGeometry x="550" y="210" width="150" height="110" as="geometry" />
        </mxCell>
        <mxCell id="mM0fU--lh0PXxAO5b_J5-12" value="" style="rounded=0;whiteSpace=wrap;html=1;" vertex="1" parent="mM0fU--lh0PXxAO5b_J5-11">
          <mxGeometry y="13.75" width="137.5" height="96.25" as="geometry" />
        </mxCell>
        <mxCell id="mM0fU--lh0PXxAO5b_J5-13" value="" style="endArrow=none;html=1;rounded=0;" edge="1" parent="mM0fU--lh0PXxAO5b_J5-11">
          <mxGeometry width="50" height="50" relative="1" as="geometry">
            <mxPoint y="13.75" as="sourcePoint" />
            <mxPoint x="12.5" as="targetPoint" />
          </mxGeometry>
        </mxCell>
        <mxCell id="mM0fU--lh0PXxAO5b_J5-14" value="" style="endArrow=none;html=1;rounded=0;exitX=1;exitY=0;exitDx=0;exitDy=0;" edge="1" parent="mM0fU--lh0PXxAO5b_J5-11" source="mM0fU--lh0PXxAO5b_J5-12">
          <mxGeometry width="50" height="50" relative="1" as="geometry">
            <mxPoint x="87.5" y="68.75" as="sourcePoint" />
            <mxPoint x="150" as="targetPoint" />
          </mxGeometry>
        </mxCell>
        <mxCell id="mM0fU--lh0PXxAO5b_J5-15" value="" style="endArrow=none;html=1;rounded=0;" edge="1" parent="mM0fU--lh0PXxAO5b_J5-11">
          <mxGeometry width="50" height="50" relative="1" as="geometry">
            <mxPoint x="137.5" y="110" as="sourcePoint" />
            <mxPoint x="150" y="96.25" as="targetPoint" />
          </mxGeometry>
        </mxCell>
        <mxCell id="mM0fU--lh0PXxAO5b_J5-16" value="" style="endArrow=none;html=1;rounded=0;" edge="1" parent="mM0fU--lh0PXxAO5b_J5-11">
          <mxGeometry width="50" height="50" relative="1" as="geometry">
            <mxPoint x="12.5" as="sourcePoint" />
            <mxPoint x="150" as="targetPoint" />
          </mxGeometry>
        </mxCell>
        <mxCell id="mM0fU--lh0PXxAO5b_J5-17" value="" style="endArrow=none;html=1;rounded=0;" edge="1" parent="mM0fU--lh0PXxAO5b_J5-11">
          <mxGeometry width="50" height="50" relative="1" as="geometry">
            <mxPoint x="150" y="96.25" as="sourcePoint" />
            <mxPoint x="150" as="targetPoint" />
          </mxGeometry>
        </mxCell>
        <mxCell id="mM0fU--lh0PXxAO5b_J5-22" value="&lt;u&gt;Bot&lt;/u&gt;" style="text;html=1;align=center;verticalAlign=middle;whiteSpace=wrap;rounded=0;" vertex="1" parent="mM0fU--lh0PXxAO5b_J5-11">
          <mxGeometry x="-8.333333333333334" y="13.75" width="50" height="27.5" as="geometry" />
        </mxCell>
        <mxCell id="mM0fU--lh0PXxAO5b_J5-33" value="botDef.py" style="rounded=0;whiteSpace=wrap;html=1;" vertex="1" parent="mM0fU--lh0PXxAO5b_J5-11">
          <mxGeometry x="10" y="41.25" width="100" height="45" as="geometry" />
        </mxCell>
        <mxCell id="mM0fU--lh0PXxAO5b_J5-19" value="main.py" style="rounded=0;whiteSpace=wrap;html=1;" vertex="1" parent="1">
          <mxGeometry x="430" y="365" width="120" height="60" as="geometry" />
        </mxCell>
        <mxCell id="mM0fU--lh0PXxAO5b_J5-34" value="" style="endArrow=classic;html=1;rounded=0;entryX=0;entryY=0.5;entryDx=0;entryDy=0;" edge="1" parent="1" target="mM0fU--lh0PXxAO5b_J5-12">
          <mxGeometry width="50" height="50" relative="1" as="geometry">
            <mxPoint x="520" y="150" as="sourcePoint" />
            <mxPoint x="570" y="100" as="targetPoint" />
          </mxGeometry>
        </mxCell>
        <mxCell id="mM0fU--lh0PXxAO5b_J5-35" value="" style="endArrow=classic;html=1;rounded=0;entryX=0.5;entryY=0;entryDx=0;entryDy=0;exitX=0.25;exitY=1;exitDx=0;exitDy=0;" edge="1" parent="1" source="mM0fU--lh0PXxAO5b_J5-12" target="mM0fU--lh0PXxAO5b_J5-19">
          <mxGeometry width="50" height="50" relative="1" as="geometry">
            <mxPoint x="600" y="420" as="sourcePoint" />
            <mxPoint x="650" y="370" as="targetPoint" />
          </mxGeometry>
        </mxCell>
        <mxCell id="mM0fU--lh0PXxAO5b_J5-36" value="Telegram API" style="rounded=0;whiteSpace=wrap;html=1;" vertex="1" parent="1">
          <mxGeometry x="780" y="370" width="140" height="60" as="geometry" />
        </mxCell>
        <mxCell id="mM0fU--lh0PXxAO5b_J5-37" value="" style="endArrow=classic;html=1;rounded=0;entryX=0;entryY=0.5;entryDx=0;entryDy=0;" edge="1" parent="1" target="mM0fU--lh0PXxAO5b_J5-36">
          <mxGeometry width="50" height="50" relative="1" as="geometry">
            <mxPoint x="550" y="400" as="sourcePoint" />
            <mxPoint x="600" y="350" as="targetPoint" />
          </mxGeometry>
        </mxCell>
        <mxCell id="mM0fU--lh0PXxAO5b_J5-38" value="Gemini API" style="rounded=0;whiteSpace=wrap;html=1;" vertex="1" parent="1">
          <mxGeometry x="80" y="80" width="120" height="60" as="geometry" />
        </mxCell>
        <mxCell id="mM0fU--lh0PXxAO5b_J5-39" value="" style="endArrow=classic;html=1;rounded=0;entryX=1;entryY=0.5;entryDx=0;entryDy=0;exitX=0;exitY=0.5;exitDx=0;exitDy=0;" edge="1" parent="1" source="mM0fU--lh0PXxAO5b_J5-2" target="mM0fU--lh0PXxAO5b_J5-38">
          <mxGeometry width="50" height="50" relative="1" as="geometry">
            <mxPoint x="180" y="250" as="sourcePoint" />
            <mxPoint x="230" y="200" as="targetPoint" />
          </mxGeometry>
        </mxCell>
      </root>
    </mxGraphModel>
  </diagram>
</mxfile>
